name D:\school\WTK\thesis\model\3dpredictsim\Results\debug_tmt\Pog_s1_tmt_bCst_d00_k2000_ig24_v3.mot
datacolumns 128
datarows 4
range 1.61067284 1.64288630
endheader
time	pelvis_tilt	pelvis_list	pelvis_rotation	pelvis_tx	pelvis_ty	pelvis_tz	hip_flexion_l	hip_adduction_l	hip_rotation_l	hip_flexion_r	hip_adduction_r	hip_rotation_r	knee_angle_l	knee_angle_r	ankle_angle_l	ankle_angle_r	subtalar_angle_l	subtalar_angle_r	tmt_angle_l	tmt_angle_r	mtp_angle_l	mtp_angle_r	lumbar_extension	lumbar_bending	lumbar_rotation	arm_flex_l	arm_add_l	arm_rot_l	arm_flex_r	arm_add_r	arm_rot_r	elbow_flex_l	elbow_flex_r	pro_sup_l	pro_sup_r	glut_med1_l/activation	glut_med2_l/activation	glut_med3_l/activation	glut_min1_l/activation	glut_min2_l/activation	glut_min3_l/activation	semimem_l/activation	semiten_l/activation	bifemlh_l/activation	bifemsh_l/activation	sar_l/activation	add_long_l/activation	add_brev_l/activation	add_mag1_l/activation	add_mag2_l/activation	add_mag3_l/activation	tfl_l/activation	pect_l/activation	grac_l/activation	glut_max1_l/activation	glut_max2_l/activation	glut_max3_l/activation	iliacus_l/activation	psoas_l/activation	quad_fem_l/activation	gem_l/activation	peri_l/activation	rect_fem_l/activation	vas_med_l/activation	vas_int_l/activation	vas_lat_l/activation	med_gas_l/activation	lat_gas_l/activation	soleus_l/activation	tib_post_l/activation	flex_dig_l/activation	flex_hal_l/activation	tib_ant_l/activation	per_brev_l/activation	per_long_l/activation	per_tert_l/activation	ext_dig_l/activation	ext_hal_l/activation	ercspn_l/activation	intobl_l/activation	extobl_l/activation	glut_med1_r/activation	glut_med2_r/activation	glut_med3_r/activation	glut_min1_r/activation	glut_min2_r/activation	glut_min3_r/activation	semimem_r/activation	semiten_r/activation	bifemlh_r/activation	bifemsh_r/activation	sar_r/activation	add_long_r/activation	add_brev_r/activation	add_mag1_r/activation	add_mag2_r/activation	add_mag3_r/activation	tfl_r/activation	pect_r/activation	grac_r/activation	glut_max1_r/activation	glut_max2_r/activation	glut_max3_r/activation	iliacus_r/activation	psoas_r/activation	quad_fem_r/activation	gem_r/activation	peri_r/activation	rect_fem_r/activation	vas_med_r/activation	vas_int_r/activation	vas_lat_r/activation	med_gas_r/activation	lat_gas_r/activation	soleus_r/activation	tib_post_r/activation	flex_dig_r/activation	flex_hal_r/activation	tib_ant_r/activation	per_brev_r/activation	per_long_r/activation	per_tert_r/activation	ext_dig_r/activation	ext_hal_r/activation	ercspn_r/activation	intobl_r/activation	extobl_r/activation	
          1.61067284	         -2.92850823	          2.24839541	         -5.45381595	          2.01334105	          0.85797242	          0.00210625	         31.40785733	          3.20605037	         -2.10452503	        -18.02656296	         -1.78765989	          6.78334376	        -14.72295948	         -7.14802323	          6.83213985	          0.83892679	         -2.88104305	         10.01656893	          0.01974573	          0.85700425	         -0.11460054	         21.85328843	         -1.86815713	         -0.60252636	          1.94883897	         -9.12359155	        -13.51942104	          6.36568244	          7.38393726	        -13.45478857	         16.69226960	         14.71834946	         35.54699280	         86.51662706	         86.51662706	          0.05894602	          0.05893714	          0.05000014	          0.05894820	          0.05894816	          0.05000259	          0.05894821	          0.05001847	          0.21910972	          0.05000033	          0.05000068	          0.12701742	          0.28660003	          0.12772979	          0.12863527	          0.09808935	          0.05000012	          0.08126571	          0.09296053	          0.05000034	          0.14669294	          0.15218353	          0.05894818	          0.05000041	          0.17427162	          0.25949648	          0.14327782	          0.05571589	          0.13795603	          0.13576199	          0.11988218	          0.05072876	          0.05111305	          0.05528142	          0.05000001	          0.05000027	          0.05000023	          0.57259293	          0.35758226	          0.20205231	          0.36544508	          0.55858127	          0.30131003	          0.06684670	          0.10007336	          0.10570583	          0.27775916	          0.10374169	          0.06954324	          0.29728710	          0.20483071	          0.10980678	          0.05000079	          0.05000018	          0.05000011	          0.07029126	          0.10585221	          0.10429385	          0.05114534	          0.05000142	          0.05000193	          0.05000060	          0.31098115	          0.10775177	          0.05000149	          0.05000185	          0.05000108	          0.05000088	          0.36054346	          0.61200443	          0.05000020	          0.05000039	          0.05370248	          0.21638663	          0.08075479	          0.05681093	          0.05452221	          0.30371047	          0.41227812	          0.29302090	          0.27231972	          0.26407861	          0.35361337	          0.05000002	          0.05894849	          0.15704801	          0.05000021	          0.05000005	          0.05000015	          0.05000003	          0.05000004	          0.05000004	
          1.62141066	         -2.92201879	          2.33414521	         -5.73576325	          2.02947791	          0.85691330	          0.00190755	         30.77742691	          3.54289252	         -1.85455727	        -17.86713680	         -2.07843702	          6.56081960	        -14.92661110	         -9.12409590	          6.20277070	          0.06146429	         -3.33575737	         10.92701101	          0.00620875	          0.73805780	         -0.07166056	         22.86250936	         -1.66831784	         -0.81691074	          2.01826259	        -10.13981344	        -13.51058966	          6.26997720	          7.23056736	        -13.46070272	         16.92431055	         14.57718762	         36.58669920	         86.51662706	         86.51662706	          0.05000001	          0.05000005	          0.11180736	          0.05000006	          0.05000007	          0.05000011	          0.05000011	          0.05000016	          0.18584947	          0.05000013	          0.05000252	          0.10773664	          0.24309504	          0.31716900	          0.20951124	          0.11903835	          0.05000099	          0.06893130	          0.09574657	          0.07811311	          0.12442625	          0.12908259	          0.05000015	          0.06949619	          0.41140355	          0.22010562	          0.12152866	          0.06855305	          0.15453143	          0.17522324	          0.14787851	          0.05000017	          0.05922715	          0.05000001	          0.06867924	          0.06950641	          0.06949793	          0.48567485	          0.39811071	          0.24217519	          0.30997161	          0.51126286	          0.25557200	          0.05669955	          0.08488249	          0.08965996	          0.23559609	          0.08799399	          0.05898679	          0.25215980	          0.17373799	          0.09313844	          0.05001143	          0.05000109	          0.05000457	          0.05962126	          0.08978429	          0.19125864	          0.10905507	          0.06949836	          0.05895496	          0.05897158	          0.26377515	          0.09140056	          0.05000999	          0.05000691	          0.05000845	          0.05894605	          0.30581395	          0.56318374	          0.05894776	          0.05894848	          0.05894793	          0.18353976	          0.09265778	          0.18588864	          0.15763118	          0.25760801	          0.34969539	          0.24854109	          0.23098290	          0.22399267	          0.29993611	          0.05000003	          0.05000034	          0.14815108	          0.05000008	          0.05000003	          0.05000014	          0.05381951	          0.06455325	          0.05556122	
          1.63214848	         -2.91186075	          2.42068894	         -5.98956030	          2.04586624	          0.85587614	          0.00171938	         29.99068834	          3.81549298	         -1.58397177	        -17.62537822	         -2.36086580	          6.32607684	        -15.40050570	        -11.23695232	          5.73944229	         -0.88266558	         -3.81136919	         11.77518648	         -0.00442456	          0.61841730	         -0.18510281	         23.71116826	         -1.45004035	         -1.03872811	          2.07636717	        -11.15992200	        -13.50631795	          6.22906171	          6.99695022	        -13.46467216	         17.08562839	         14.47149684	         37.59137849	         86.51662706	         86.51662706	          0.25460673	          0.24623934	          0.30888237	          0.34952753	          0.22941097	          0.20832175	          0.07507739	          0.05000349	          0.15763848	          0.08193559	          0.05237510	          0.09138256	          0.20619391	          0.26902366	          0.17770812	          0.10153577	          0.05000047	          0.05893958	          0.08121393	          0.15810836	          0.15417634	          0.10948833	          0.05894772	          0.05894695	          0.34895363	          0.18669429	          0.23556870	          0.05814689	          0.13107402	          0.14862488	          0.12543098	          0.05000206	          0.05023679	          0.05597890	          0.05825396	          0.05895563	          0.05894850	          0.56128224	          0.41809874	          0.20622588	          0.43737852	          0.59495145	          0.29413426	          0.06527534	          0.10606326	          0.07604982	          0.33131950	          0.07463675	          0.05003278	          0.33475633	          0.14736509	          0.07900031	          0.05000201	          0.05000024	          0.05000018	          0.05057100	          0.07615601	          0.16222620	          0.09250098	          0.05894881	          0.05000611	          0.05002001	          0.26076745	          0.07754877	          0.05000091	          0.05000186	          0.05000106	          0.05000066	          0.25939238	          0.53197212	          0.05000015	          0.05000076	          0.05000022	          0.15567893	          0.07859267	          0.15767132	          0.13370326	          0.21850378	          0.29661254	          0.21081319	          0.19592034	          0.18999131	          0.25440670	          0.05000001	          0.10005783	          0.17622491	          0.05000014	          0.05000007	          0.05000014	          0.05424619	          0.05475424	          0.05000005	
          1.64288630	         -2.90003250	          2.49867292	         -6.20890669	          2.06230281	          0.85488508	          0.00150869	         29.13158079	          4.07170952	         -1.31497845	        -17.27874385	         -2.62836664	          6.09462893	        -15.82045280	        -13.49807162	          5.35784403	         -1.97923849	         -4.30249474	         12.57405415	         -0.00885283	          0.49415972	         -0.19063218	         24.33200132	         -1.23502333	         -1.25776709	          2.12480433	        -12.13485891	        -13.50227123	          6.24836663	          6.71763724	        -13.47481376	         17.20255344	         14.37265995	         38.53993149	         86.51662706	         86.51662706	          0.33862236	          0.35407353	          0.39962543	          0.29647054	          0.19458922	          0.22191850	          0.06724999	          0.10499201	          0.13370942	          0.06949851	          0.05000058	          0.07751097	          0.17489428	          0.22818704	          0.19668155	          0.15942117	          0.05000027	          0.05000300	          0.12369435	          0.24396949	          0.19896412	          0.15647308	          0.05000011	          0.05000011	          0.29598346	          0.15835467	          0.19981109	          0.05000004	          0.11118655	          0.20216747	          0.15690887	          0.05000001	          0.05000003	          0.05000000	          0.05000000	          0.05000641	          0.05000036	          0.61915572	          0.36481628	          0.18990550	          0.67210287	          0.61752600	          0.37793236	          0.08250440	          0.08996315	          0.06450566	          0.28102622	          0.06330711	          0.05000008	          0.28394144	          0.12499552	          0.06700832	          0.05000329	          0.05000022	          0.05000021	          0.05000015	          0.06459597	          0.17911023	          0.07846028	          0.05000113	          0.05000218	          0.05000114	          0.22118519	          0.06578232	          0.05000095	          0.05000226	          0.05000150	          0.05000100	          0.22001734	          0.48470867	          0.05000020	          0.05000069	          0.05000019	          0.13204730	          0.11276758	          0.13374295	          0.11341503	          0.18533547	          0.25158753	          0.17881229	          0.16618018	          0.16115123	          0.21578850	          0.05128400	          0.11783975	          0.15864098	          0.05000036	          0.13922213	          0.05000072	          0.09013173	          0.05000001	          0.05000004	
